<?xml version="1.0" encoding="UTF-8" standalone="no"?>
<svg width="21px" height="34px" viewBox="0 0 21 34" version="1.1" xmlns="http://www.w3.org/2000/svg" xmlns:xlink="http://www.w3.org/1999/xlink">
    <!-- Generator: Sketch 40.1 (33804) - http://www.bohemiancoding.com/sketch -->
    <title>Shape</title>
    <desc>Created with Sketch.</desc>
    <defs></defs>
    <g id="Page-1" stroke="none" stroke-width="1" fill="none" fill-rule="evenodd">
        <path d="M10.3375,0 C4.814204,0 0.35,4.52292583 0.35,10.1190452 C0.35,11.4041963 0.720372,13.0364914 1.15,14.1666633 L10.35,34 L19.55,14.1666633 C19.982036,13.0360745 20.35,11.404767 20.35,10.1190452 C20.35,4.52292583 15.860864,4.601609e-14 10.3375,4.601609e-14 L10.3375,0 Z M10.3375,4.8571417 C13.209644,4.8571417 15.55,7.20906685 15.55,10.1190452 C15.55,13.0290276 13.209644,15.3809487 10.3375,15.3809487 C7.465388,15.3809487 5.15,13.0290276 5.15,10.1190452 C5.15,7.20906685 7.465388,4.8571417 10.3375,4.8571417 L10.3375,4.8571417 Z" id="Shape" fill="#41AD49"></path>
    </g>
</svg>