<svg version="1.1" xmlns="http://www.w3.org/2000/svg" xmlns:xlink="http://www.w3.org/1999/xlink" x="0px" y="0px" viewBox="0 0 48 48" xml:space="preserve" width="48" height="48"><g class="nc-icon-wrapper" fill="#0176ff"><path fill="#0176ff" d="M24,1C15.644,1,7,7.359,7,18c0,11.285,15.627,27.042,16.293,27.707C23.48,45.895,23.735,46,24,46 s0.52-0.105,0.707-0.293C25.373,45.042,41,29.285,41,18C41,7.359,32.356,1,24,1z M24,24c-3.309,0-6-2.691-6-6s2.691-6,6-6 s6,2.691,6,6S27.309,24,24,24z"></path></g></svg>