<svg width="24" height="29" xmlns="http://www.w3.org/2000/svg">
  <g fill-rule="nonzero" fill="none">
    <path fill="#FFF" d="M.8 1.634h21.6v21.648H.8z"/>
    <path d="M21.333 0H2.667C1.193 0 0 1.236 0 2.762v19.333c0 1.526 1.193 2.762 2.667 2.762H8L12 29l4-4.143h5.333c1.474 0 2.667-1.236 2.667-2.762V2.762C24 1.236 22.807 0 21.333 0zM12 4.557c1.987 0 3.6 1.671 3.6 3.729 0 2.057-1.613 3.728-3.6 3.728s-3.6-1.67-3.6-3.728c0-2.058 1.613-3.729 3.6-3.729zm8 14.776H4V18.09c0-2.761 5.333-4.28 8-4.28s8 1.519 8 4.28v1.243z" fill="#666"/>
  </g>
</svg>