<svg width="25" height="32" viewBox="0 0 25 32" fill="none" xmlns="http://www.w3.org/2000/svg">
<path d="M19.4917 22.3169L19.4918 22.3169L19.4967 22.3096C19.5843 22.1782 19.6709 22.0485 19.7564 21.9204C22.0478 18.4883 23.5645 16.2165 23.5645 12.5323C23.5645 6.16317 18.4013 1 12.0323 1C5.66317 1 0.5 6.16317 0.5 12.5323C0.5 16.5417 3.05396 20.5158 5.20313 23.2599C6.56216 24.9952 9.21424 28.1986 11.703 30.3763L12.0323 30.6644L12.3615 30.3763C14.8402 28.2075 16.7075 26.3386 19.4917 22.3169Z" fill="#2D78F6" stroke="white"/>
<path d="M18.6968 9.73418L14.6509 9.14642L12.8407 5.48019C12.5239 4.83994 11.4759 4.83994 11.159 5.48019L9.3498 9.14642L5.30298 9.73418C4.53711 9.84573 4.22682 10.7906 4.78365 11.3344L7.71213 14.1878L7.02126 18.2178C6.89096 18.9808 7.69338 19.5667 8.38145 19.2058L11.9999 17.3038L15.6192 19.2068C16.3017 19.5639 17.1107 18.9874 16.9794 18.2187L16.2885 14.1888L19.217 11.3353C19.7729 10.7906 19.4626 9.84573 18.6968 9.73418Z" fill="white"/>
</svg>
