<?xml version="1.0" encoding="UTF-8" standalone="no"?>
<svg width="11px" height="18px" viewBox="0 0 11 18" version="1.1" xmlns="http://www.w3.org/2000/svg" xmlns:xlink="http://www.w3.org/1999/xlink">
    <!-- Generator: Sketch 40.1 (33804) - http://www.bohemiancoding.com/sketch -->
    <title>Shape Copy</title>
    <desc>Created with Sketch.</desc>
    <defs></defs>
    <g id="Page-1" stroke="none" stroke-width="1" fill="none" fill-rule="evenodd">
        <path d="M5.493125,0 C2.4553122,0 0,2.39449014 0,5.35714158 C0,6.03751571 0.2037046,6.90167193 0.44,7.49999821 L5.5,18 L10.56,7.49999821 C10.7976198,6.90145121 11,6.03781785 11,5.35714158 C11,2.39449014 8.5309752,2.43614594e-14 5.493125,2.43614594e-14 L5.493125,0 Z M5.49399038,3 C6.87482885,3 8,4.11743077 8,5.5 C8,6.88257115 6.87482885,8 5.49399038,8 C4.11316731,8 3,6.88257115 3,5.5 C3,4.11743077 4.11316731,3 5.49399038,3 L5.49399038,3 Z" id="Shape-Copy" fill="#000000"></path>
    </g>
</svg>