<svg width="47" height="47" viewBox="0 0 47 47" fill="none" xmlns="http://www.w3.org/2000/svg">
<circle opacity="0.2" cx="23.5" cy="23.5" r="23.5" fill="#666666"/>
<circle cx="24" cy="23" r="10.5" fill="#666666" stroke="white"/>
<path fill-rule="evenodd" clip-rule="evenodd" d="M24 25.5C26.0711 25.5 27.75 23.8211 27.75 21.75C27.75 19.6789 26.0711 18 24 18C21.9289 18 20.25 19.6789 20.25 21.75C20.25 23.8211 21.9289 25.5 24 25.5ZM27 33L31.5 30.5C29 27.6667 23.3 23.7 16.5 30.5C17.1374 31.1374 17.3685 30.7592 17.4523 30.7894C17.5 30.8066 17.5 30.956 17.5 31.5L22.5 33.5L27 33Z" fill="white"/>
</svg>
